<svg width="30" height="30" viewBox="0 0 30 30" fill="none" xmlns="http://www.w3.org/2000/svg">
<circle cx="14.7908" cy="14.5378" r="9.8491" fill="url(#paint0_linear_21_284)" stroke="url(#paint1_linear_21_284)" stroke-width="2"/>
<path fill-rule="evenodd" clip-rule="evenodd" d="M14.7908 0C14.3544 0 14.0007 0.353739 14.0007 0.790098V3.31841C14.0007 3.75477 14.3544 4.10851 14.7908 4.10851C15.2272 4.10851 15.5809 3.75477 15.5809 3.31841V0.790098C15.5809 0.353739 15.2272 0 14.7908 0ZM14.7908 24.9671C14.3544 24.9671 14.0007 25.3208 14.0007 25.7572V28.2855C14.0007 28.7219 14.3544 29.0756 14.7908 29.0756C15.2272 29.0756 15.5809 28.7219 15.5809 28.2855V25.7572C15.5809 25.3208 15.2272 24.9671 14.7908 24.9671ZM20.9804 2.23689C21.1986 1.85899 21.6818 1.72951 22.0597 1.94769C22.4376 2.16587 22.5671 2.64909 22.3489 3.02699L21.0848 5.21657C20.8666 5.59447 20.3834 5.72394 20.0055 5.50576C19.6276 5.28759 19.4981 4.80437 19.7163 4.42647L20.9804 2.23689ZM9.57617 23.5698C9.19827 23.3517 8.71505 23.4811 8.49687 23.859L7.23272 26.0486C7.01454 26.4265 7.14402 26.9097 7.52191 27.1279C7.89981 27.3461 8.38303 27.2166 8.60121 26.8387L9.86537 24.6491C10.0835 24.2712 9.95407 23.788 9.57617 23.5698ZM26.3016 6.9797C26.6795 6.76152 27.1628 6.891 27.3809 7.2689C27.5991 7.64679 27.4696 8.13001 27.0917 8.34819L24.9022 9.61235C24.5243 9.83053 24.041 9.70105 23.8229 9.32315C23.6047 8.94525 23.7342 8.46204 24.1121 8.24386L26.3016 6.9797ZM5.75879 19.7524C5.54061 19.3745 5.05739 19.2451 4.6795 19.4632L2.48991 20.7274C2.11201 20.9456 1.98254 21.4288 2.20072 21.8067C2.4189 22.1846 2.90211 22.3141 3.28001 22.0959L5.46959 20.8317C5.84749 20.6136 5.97697 20.1303 5.75879 19.7524ZM28.5385 13.7477C28.9749 13.7477 29.3286 14.1014 29.3286 14.5378C29.3286 14.9742 28.9749 15.3279 28.5385 15.3279H26.0102C25.5739 15.3279 25.2201 14.9742 25.2201 14.5378C25.2201 14.1014 25.5739 13.7477 26.0102 13.7477H28.5385ZM4.36153 14.5378C4.36153 14.1014 4.00779 13.7477 3.57143 13.7477H1.04312C0.60676 13.7477 0.253021 14.1014 0.253021 14.5378C0.253021 14.9742 0.60676 15.3279 1.04312 15.3279H3.57143C4.00779 15.3279 4.36153 14.9742 4.36153 14.5378ZM27.0917 20.7274C27.4696 20.9456 27.5991 21.4288 27.3809 21.8067C27.1628 22.1846 26.6795 22.3141 26.3016 22.0959L24.1121 20.8317C23.7342 20.6136 23.6047 20.1303 23.8229 19.7524C24.041 19.3745 24.5243 19.2451 24.9022 19.4632L27.0917 20.7274ZM5.75879 9.32315C5.97697 8.94525 5.84749 8.46204 5.46959 8.24386L3.28001 6.9797C2.90211 6.76152 2.41889 6.891 2.20071 7.2689C1.98254 7.64679 2.11201 8.13001 2.48991 8.34819L4.67949 9.61235C5.05739 9.83053 5.54061 9.70105 5.75879 9.32315ZM22.3489 26.0486C22.5671 26.4265 22.4376 26.9097 22.0597 27.1279C21.6818 27.3461 21.1986 27.2166 20.9804 26.8387L19.7163 24.6491C19.4981 24.2712 19.6276 23.788 20.0055 23.5698C20.3834 23.3516 20.8666 23.4811 21.0848 23.859L22.3489 26.0486ZM9.57617 5.50576C9.95407 5.28758 10.0835 4.80436 9.86536 4.42646L8.60121 2.23688C8.38303 1.85898 7.89981 1.72951 7.52191 1.94769C7.14401 2.16586 7.01454 2.64908 7.23272 3.02698L8.49687 5.21656C8.71505 5.59446 9.19827 5.72394 9.57617 5.50576Z" fill="url(#paint2_linear_21_284)"/>
<defs>
<linearGradient id="paint0_linear_21_284" x1="19.7684" y1="6.95288" x2="11.7367" y2="23.456" gradientUnits="userSpaceOnUse">
<stop offset="0.182844" stop-color="#FFE600"/>
<stop offset="0.980542" stop-color="#F09000"/>
</linearGradient>
<linearGradient id="paint1_linear_21_284" x1="10.2707" y1="3.66501" x2="22.7317" y2="33.5958" gradientUnits="userSpaceOnUse">
<stop stop-color="#FFE600"/>
<stop offset="1" stop-color="#9C8D00"/>
</linearGradient>
<linearGradient id="paint2_linear_21_284" x1="25.4571" y1="3.79247" x2="3.88745" y2="29.0756" gradientUnits="userSpaceOnUse">
<stop stop-color="#FFE600"/>
<stop offset="1" stop-color="#AA9900"/>
</linearGradient>
</defs>
</svg>
